<svg width="545" height="134" viewBox="0 0 545 134" fill="none" xmlns="http://www.w3.org/2000/svg">
<path d="M196.398 31.037V39.6112H174.317V53.1934H191.238V61.6159H174.317V84H163.694V31.037H196.398ZM209.318 36.9555C207.446 36.9555 205.878 36.3738 204.613 35.2103C203.399 33.9963 202.792 32.504 202.792 30.7335C202.792 28.963 203.399 27.496 204.613 26.3326C205.878 25.1185 207.446 24.5115 209.318 24.5115C211.19 24.5115 212.732 25.1185 213.947 26.3326C215.211 27.496 215.843 28.963 215.843 30.7335C215.843 32.504 215.211 33.9963 213.947 35.2103C212.732 36.3738 211.19 36.9555 209.318 36.9555ZM214.554 41.9635V84H203.931V41.9635H214.554ZM256.766 84L245.309 66.1686L234.913 84H222.924L239.618 57.2909L222.697 31.037H234.913L246.371 48.7925L256.69 31.037H268.679L252.062 57.6703L268.983 84H256.766ZM295.733 84.6829C291.686 84.6829 288.044 83.7977 284.807 82.0272C281.569 80.2061 279.015 77.6515 277.143 74.3635C275.322 71.0754 274.411 67.2815 274.411 62.9817C274.411 58.682 275.347 54.8881 277.219 51.6C279.141 48.3119 281.746 45.7827 285.034 44.0122C288.322 42.1911 291.99 41.2806 296.037 41.2806C300.083 41.2806 303.751 42.1911 307.039 44.0122C310.327 45.7827 312.907 48.3119 314.779 51.6C316.701 54.8881 317.662 58.682 317.662 62.9817C317.662 67.2815 316.676 71.0754 314.703 74.3635C312.78 77.6515 310.15 80.2061 306.811 82.0272C303.523 83.7977 299.831 84.6829 295.733 84.6829ZM295.733 75.4258C297.655 75.4258 299.451 74.9705 301.12 74.06C302.84 73.0988 304.206 71.6824 305.218 69.8108C306.23 67.9391 306.735 65.6628 306.735 62.9817C306.735 58.9855 305.673 55.9251 303.549 53.8005C301.475 51.6253 298.92 50.5377 295.885 50.5377C292.85 50.5377 290.295 51.6253 288.221 53.8005C286.198 55.9251 285.186 58.9855 285.186 62.9817C285.186 66.978 286.172 70.0637 288.145 72.2389C290.169 74.3635 292.698 75.4258 295.733 75.4258ZM336.077 27.8501V84H325.454V27.8501H336.077ZM386.257 41.9635V84H375.558V78.6885C374.192 80.5096 372.397 81.9513 370.171 83.0136C367.996 84.0253 365.618 84.5311 363.038 84.5311C359.75 84.5311 356.842 83.8482 354.312 82.4824C351.783 81.066 349.785 79.0173 348.318 76.3363C346.902 73.6047 346.193 70.3672 346.193 66.6239V41.9635H356.816V65.1063C356.816 68.445 357.651 71.0248 359.32 72.8459C360.99 74.6164 363.266 75.5016 366.149 75.5016C369.083 75.5016 371.385 74.6164 373.054 72.8459C374.724 71.0248 375.558 68.445 375.558 65.1063V41.9635H386.257ZM409.106 50.6895V71.0248C409.106 72.4412 409.435 73.4782 410.093 74.1358C410.801 74.7429 411.965 75.0464 413.583 75.0464H418.515V84H411.838C402.884 84 398.408 79.6496 398.408 70.9489V50.6895H393.4V41.9635H398.408V31.5682H409.106V41.9635H418.515V50.6895H409.106ZM431.543 36.9555C429.672 36.9555 428.103 36.3738 426.839 35.2103C425.625 33.9963 425.018 32.504 425.018 30.7335C425.018 28.963 425.625 27.496 426.839 26.3326C428.103 25.1185 429.672 24.5115 431.543 24.5115C433.415 24.5115 434.958 25.1185 436.172 26.3326C437.436 27.496 438.069 28.963 438.069 30.7335C438.069 32.504 437.436 33.9963 436.172 35.2103C434.958 36.3738 433.415 36.9555 431.543 36.9555ZM436.779 41.9635V84H426.156V41.9635H436.779ZM465.94 84.6829C461.894 84.6829 458.251 83.7977 455.014 82.0272C451.776 80.2061 449.222 77.6515 447.35 74.3635C445.529 71.0754 444.619 67.2815 444.619 62.9817C444.619 58.682 445.554 54.8881 447.426 51.6C449.348 48.3119 451.954 45.7827 455.242 44.0122C458.53 42.1911 462.197 41.2806 466.244 41.2806C470.291 41.2806 473.958 42.1911 477.246 44.0122C480.534 45.7827 483.114 48.3119 484.986 51.6C486.908 54.8881 487.869 58.682 487.869 62.9817C487.869 67.2815 486.883 71.0754 484.91 74.3635C482.988 77.6515 480.357 80.2061 477.019 82.0272C473.731 83.7977 470.038 84.6829 465.94 84.6829ZM465.94 75.4258C467.863 75.4258 469.658 74.9705 471.328 74.06C473.048 73.0988 474.413 71.6824 475.425 69.8108C476.437 67.9391 476.943 65.6628 476.943 62.9817C476.943 58.9855 475.88 55.9251 473.756 53.8005C471.682 51.6253 469.127 50.5377 466.092 50.5377C463.057 50.5377 460.502 51.6253 458.428 53.8005C456.405 55.9251 455.393 58.9855 455.393 62.9817C455.393 66.978 456.38 70.0637 458.353 72.2389C460.376 74.3635 462.905 75.4258 465.94 75.4258ZM518.956 41.3564C523.964 41.3564 528.011 42.9499 531.097 46.1368C534.182 49.2731 535.725 53.674 535.725 59.3396V84H525.102V60.7813C525.102 57.4426 524.268 54.8881 522.598 53.1176C520.929 51.2965 518.653 50.386 515.769 50.386C512.835 50.386 510.508 51.2965 508.788 53.1176C507.119 54.8881 506.284 57.4426 506.284 60.7813V84H495.662V41.9635H506.284V47.1991C507.701 45.378 509.497 43.9616 511.672 42.9499C513.898 41.8876 516.326 41.3564 518.956 41.3564Z" fill="white"/>
<path d="M10.3821 28.7928L12.825 28.1821L97.1038 28.4875L101.684 29.7089L105.654 30.9304L108.707 32.1518L112.372 33.9839L117.868 37.0375L126.113 44.3661L131.304 50.7786L135.274 58.4126L137.106 63.2983L138.633 68.4894L139.243 72.459L139.854 79.1769V85.8948L139.243 89.5591L138.022 94.1395L135.579 100.552L133.441 105.132L130.082 109.713L125.807 115.209L120.922 119.484L116.647 122.538L112.372 125.286L106.875 127.729L99.2413 129.866L94.661 130.782H89.1645H82.4466L77.2555 129.866L73.2859 128.645L68.0948 127.118L62.9037 124.37L56.1858 119.179L50.0787 113.682L47.0251 110.018L43.6662 104.522L42.1394 101.468H31.7572L29.3143 99.6359L27.7876 97.193V91.3912L28.7036 89.5591L30.2304 88.0323L31.7572 86.8109H57.1019V88.9484L58.9341 93.5287L61.0716 97.8037L64.7359 102.384L69.3162 106.659L73.8966 109.713L79.0877 111.545L82.4466 112.461H94.0502L99.2413 110.934L104.432 108.491L109.623 105.132L114.204 100.552L116.036 96.8877H83.9734L73.8966 79.1769L83.9734 62.0769H116.036L113.899 59.0233L107.181 52.6108L101.684 49.2518L96.4931 47.725L89.1645 47.1143L81.8359 47.725L76.3395 49.2518L71.1484 52.0001L66.8734 55.9697L63.5144 59.634L61.0716 62.9929L58.9341 66.3519L57.4073 69.7108L57.1019 72.459H22.5965L21.375 71.8483L20.1536 71.2376L18.9322 70.0162L18.3215 68.7947V61.4661L19.5429 59.634L21.375 58.1072L21.9858 57.8019L22.9018 57.4965H39.0858L40.6126 57.1911L42.1394 55.9697L43.3608 55.0536L44.2769 53.5268V47.1143L43.0555 44.9768L41.834 43.7554L40.6126 43.1447L12.825 42.8393L11.6036 42.534L10.3821 41.9232L8.55 40.3964L7.63393 39.175V34.5946V31.5411L8.55 30.0143L10.3821 28.7928Z" fill="url(#paint0_linear_23_2)" stroke="#0EA9C5" stroke-width="0.610716"/>
<circle cx="7.63395" cy="64.5197" r="7.63395" fill="url(#paint1_linear_23_2)"/>
<path d="M174.729 110.15L173.715 114.954H177.399V117.09H173.261L172.113 122.429H169.791L170.939 117.09H165.333L164.185 122.429H161.863L163.011 117.09H158.82V114.954H163.464L164.479 110.15H160.341V108.014H164.933L166.08 102.675H168.403L167.255 108.014H172.861L174.008 102.675H176.331L175.183 108.014H178.893V110.15H174.729ZM172.407 110.15H166.801L165.787 114.954H171.392L172.407 110.15ZM191.729 112.846C192.405 112.952 193.019 113.228 193.571 113.673C194.14 114.118 194.585 114.67 194.906 115.328C195.244 115.987 195.413 116.69 195.413 117.437C195.413 118.38 195.173 119.234 194.692 120C194.212 120.747 193.509 121.343 192.583 121.788C191.676 122.215 190.599 122.429 189.353 122.429H182.413V103.823H189.086C190.35 103.823 191.427 104.037 192.316 104.464C193.206 104.873 193.873 105.434 194.318 106.145C194.763 106.857 194.986 107.658 194.986 108.548C194.986 109.651 194.683 110.568 194.078 111.297C193.491 112.009 192.708 112.525 191.729 112.846ZM184.842 111.858H188.926C190.065 111.858 190.946 111.591 191.569 111.057C192.192 110.523 192.503 109.785 192.503 108.842C192.503 107.898 192.192 107.16 191.569 106.626C190.946 106.092 190.047 105.825 188.873 105.825H184.842V111.858ZM189.14 120.427C190.35 120.427 191.293 120.142 191.969 119.572C192.646 119.003 192.984 118.211 192.984 117.197C192.984 116.165 192.628 115.355 191.916 114.768C191.204 114.163 190.252 113.86 189.06 113.86H184.842V120.427H189.14ZM201.213 105.798V112.018H207.993V114.02H201.213V120.427H208.794V122.429H198.784V103.796H208.794V105.798H201.213ZM218.369 122.616C217.141 122.616 216.038 122.402 215.059 121.975C214.098 121.53 213.342 120.925 212.79 120.16C212.238 119.377 211.953 118.478 211.936 117.464H214.525C214.614 118.336 214.97 119.074 215.593 119.679C216.233 120.267 217.159 120.56 218.369 120.56C219.526 120.56 220.433 120.275 221.092 119.706C221.768 119.119 222.106 118.371 222.106 117.464C222.106 116.752 221.91 116.173 221.519 115.729C221.127 115.284 220.638 114.946 220.051 114.714C219.463 114.483 218.671 114.234 217.675 113.967C216.447 113.646 215.459 113.326 214.712 113.006C213.982 112.685 213.35 112.187 212.817 111.511C212.301 110.817 212.042 109.891 212.042 108.735C212.042 107.72 212.301 106.822 212.817 106.039C213.333 105.256 214.053 104.651 214.979 104.223C215.922 103.796 216.999 103.583 218.209 103.583C219.953 103.583 221.376 104.019 222.48 104.891C223.601 105.763 224.233 106.92 224.375 108.361H221.706C221.617 107.649 221.243 107.026 220.585 106.492C219.926 105.941 219.054 105.665 217.969 105.665C216.954 105.665 216.127 105.932 215.486 106.466C214.845 106.982 214.525 107.711 214.525 108.655C214.525 109.331 214.712 109.883 215.086 110.31C215.477 110.737 215.949 111.066 216.5 111.297C217.07 111.511 217.862 111.76 218.876 112.045C220.104 112.383 221.092 112.721 221.839 113.059C222.587 113.379 223.227 113.887 223.761 114.581C224.295 115.257 224.562 116.182 224.562 117.357C224.562 118.264 224.322 119.119 223.841 119.919C223.361 120.72 222.649 121.37 221.706 121.868C220.762 122.366 219.65 122.616 218.369 122.616ZM239.588 103.823V105.798H234.516V122.429H232.087V105.798H226.989V103.823H239.588ZM255.941 127.394C254.233 125.721 252.898 123.594 251.937 121.014C250.994 118.434 250.523 115.648 250.523 112.659C250.523 109.598 251.021 106.742 252.017 104.09C253.032 101.421 254.473 99.2228 256.342 97.4966H258.878V97.7369C256.885 99.6054 255.381 101.857 254.366 104.49C253.37 107.106 252.872 109.829 252.872 112.659C252.872 115.417 253.343 118.051 254.286 120.56C255.247 123.069 256.644 125.267 258.477 127.154V127.394H255.941ZM271.133 112.846C271.809 112.952 272.423 113.228 272.975 113.673C273.544 114.118 273.989 114.67 274.309 115.328C274.648 115.987 274.817 116.69 274.817 117.437C274.817 118.38 274.576 119.234 274.096 120C273.615 120.747 272.913 121.343 271.987 121.788C271.08 122.215 270.003 122.429 268.757 122.429H261.817V103.823H268.49C269.754 103.823 270.83 104.037 271.72 104.464C272.61 104.873 273.277 105.434 273.722 106.145C274.167 106.857 274.39 107.658 274.39 108.548C274.39 109.651 274.087 110.568 273.482 111.297C272.895 112.009 272.112 112.525 271.133 112.846ZM264.246 111.858H268.33C269.469 111.858 270.35 111.591 270.973 111.057C271.596 110.523 271.907 109.785 271.907 108.842C271.907 107.898 271.596 107.16 270.973 106.626C270.35 106.092 269.451 105.825 268.277 105.825H264.246V111.858ZM268.544 120.427C269.754 120.427 270.697 120.142 271.373 119.572C272.049 119.003 272.388 118.211 272.388 117.197C272.388 116.165 272.032 115.355 271.32 114.768C270.608 114.163 269.656 113.86 268.464 113.86H264.246V120.427H268.544ZM291.535 114.554C291.535 115.017 291.508 115.506 291.454 116.022H279.763C279.852 117.464 280.341 118.594 281.231 119.412C282.138 120.213 283.233 120.614 284.514 120.614C285.564 120.614 286.436 120.373 287.13 119.893C287.842 119.395 288.34 118.736 288.625 117.917H291.241C290.849 119.323 290.066 120.471 288.892 121.361C287.717 122.233 286.258 122.669 284.514 122.669C283.126 122.669 281.88 122.358 280.777 121.735C279.691 121.112 278.837 120.231 278.214 119.092C277.591 117.935 277.28 116.601 277.28 115.088C277.28 113.575 277.583 112.249 278.188 111.111C278.793 109.972 279.638 109.1 280.724 108.495C281.827 107.872 283.09 107.56 284.514 107.56C285.902 107.56 287.13 107.863 288.198 108.468C289.266 109.073 290.084 109.909 290.654 110.977C291.241 112.027 291.535 113.219 291.535 114.554ZM289.025 114.047C289.025 113.121 288.821 112.33 288.411 111.671C288.002 110.995 287.441 110.488 286.73 110.15C286.036 109.794 285.261 109.616 284.407 109.616C283.179 109.616 282.129 110.007 281.257 110.79C280.403 111.573 279.914 112.659 279.789 114.047H289.025ZM301.868 107.534C303.648 107.534 305.089 108.076 306.193 109.162C307.296 110.23 307.848 111.778 307.848 113.807V122.429H305.445V114.154C305.445 112.694 305.08 111.582 304.351 110.817C303.621 110.034 302.625 109.642 301.361 109.642C300.08 109.642 299.056 110.043 298.291 110.844C297.544 111.644 297.17 112.81 297.17 114.34V122.429H294.741V107.8H297.17V109.883C297.651 109.135 298.3 108.557 299.119 108.147C299.955 107.738 300.872 107.534 301.868 107.534ZM317.848 107.56C319.112 107.56 320.215 107.836 321.158 108.388C322.119 108.939 322.831 109.633 323.294 110.47V107.8H325.75V122.749C325.75 124.084 325.465 125.267 324.896 126.299C324.326 127.349 323.508 128.168 322.44 128.755C321.39 129.342 320.162 129.636 318.756 129.636C316.834 129.636 315.232 129.182 313.951 128.275C312.67 127.367 311.914 126.13 311.682 124.564H314.085C314.352 125.454 314.903 126.166 315.74 126.7C316.576 127.251 317.582 127.527 318.756 127.527C320.091 127.527 321.176 127.109 322.013 126.273C322.867 125.436 323.294 124.262 323.294 122.749V119.679C322.814 120.533 322.102 121.245 321.158 121.815C320.215 122.384 319.112 122.669 317.848 122.669C316.549 122.669 315.366 122.349 314.298 121.708C313.248 121.067 312.421 120.169 311.816 119.012C311.211 117.855 310.908 116.538 310.908 115.061C310.908 113.566 311.211 112.258 311.816 111.137C312.421 109.998 313.248 109.117 314.298 108.495C315.366 107.872 316.549 107.56 317.848 107.56ZM323.294 115.088C323.294 113.985 323.072 113.024 322.627 112.205C322.182 111.386 321.577 110.763 320.811 110.336C320.064 109.891 319.237 109.669 318.329 109.669C317.421 109.669 316.594 109.883 315.846 110.31C315.099 110.737 314.503 111.36 314.058 112.178C313.613 112.997 313.391 113.958 313.391 115.061C313.391 116.182 313.613 117.161 314.058 117.998C314.503 118.816 315.099 119.448 315.846 119.893C316.594 120.32 317.421 120.533 318.329 120.533C319.237 120.533 320.064 120.32 320.811 119.893C321.577 119.448 322.182 118.816 322.627 117.998C323.072 117.161 323.294 116.191 323.294 115.088ZM338.023 122.429L332.284 115.969V122.429H329.855V102.675H332.284V114.287L337.916 107.8H341.307L334.42 115.088L341.333 122.429H338.023ZM356.94 114.554C356.94 115.017 356.913 115.506 356.86 116.022H345.168C345.257 117.464 345.746 118.594 346.636 119.412C347.544 120.213 348.638 120.614 349.919 120.614C350.969 120.614 351.841 120.373 352.535 119.893C353.247 119.395 353.745 118.736 354.03 117.917H356.646C356.255 119.323 355.472 120.471 354.297 121.361C353.123 122.233 351.663 122.669 349.919 122.669C348.531 122.669 347.285 122.358 346.182 121.735C345.097 121.112 344.242 120.231 343.62 119.092C342.997 117.935 342.685 116.601 342.685 115.088C342.685 113.575 342.988 112.249 343.593 111.111C344.198 109.972 345.043 109.1 346.129 108.495C347.232 107.872 348.496 107.56 349.919 107.56C351.307 107.56 352.535 107.863 353.603 108.468C354.671 109.073 355.489 109.909 356.059 110.977C356.646 112.027 356.94 113.219 356.94 114.554ZM354.431 114.047C354.431 113.121 354.226 112.33 353.817 111.671C353.407 110.995 352.847 110.488 352.135 110.15C351.441 109.794 350.667 109.616 349.812 109.616C348.585 109.616 347.535 110.007 346.663 110.79C345.808 111.573 345.319 112.659 345.194 114.047H354.431ZM362.575 102.675V122.429H360.146V102.675H362.575ZM379.731 122.616C378.503 122.616 377.4 122.402 376.421 121.975C375.46 121.53 374.704 120.925 374.152 120.16C373.601 119.377 373.316 118.478 373.298 117.464H375.887C375.976 118.336 376.332 119.074 376.955 119.679C377.596 120.267 378.521 120.56 379.731 120.56C380.888 120.56 381.796 120.275 382.454 119.706C383.13 119.119 383.468 118.371 383.468 117.464C383.468 116.752 383.273 116.173 382.881 115.729C382.49 115.284 382 114.946 381.413 114.714C380.826 114.483 380.034 114.234 379.037 113.967C377.809 113.646 376.822 113.326 376.074 113.006C375.345 112.685 374.713 112.187 374.179 111.511C373.663 110.817 373.405 109.891 373.405 108.735C373.405 107.72 373.663 106.822 374.179 106.039C374.695 105.256 375.416 104.651 376.341 104.223C377.284 103.796 378.361 103.583 379.571 103.583C381.315 103.583 382.739 104.019 383.842 104.891C384.963 105.763 385.595 106.92 385.737 108.361H383.068C382.979 107.649 382.605 107.026 381.947 106.492C381.288 105.941 380.416 105.665 379.331 105.665C378.317 105.665 377.489 105.932 376.848 106.466C376.208 106.982 375.887 107.711 375.887 108.655C375.887 109.331 376.074 109.883 376.448 110.31C376.839 110.737 377.311 111.066 377.863 111.297C378.432 111.511 379.224 111.76 380.238 112.045C381.466 112.383 382.454 112.721 383.202 113.059C383.949 113.379 384.59 113.887 385.123 114.581C385.657 115.257 385.924 116.182 385.924 117.357C385.924 118.264 385.684 119.119 385.204 119.919C384.723 120.72 384.011 121.37 383.068 121.868C382.125 122.366 381.013 122.616 379.731 122.616ZM395.879 122.669C394.509 122.669 393.263 122.358 392.142 121.735C391.038 121.112 390.166 120.231 389.526 119.092C388.903 117.935 388.591 116.601 388.591 115.088C388.591 113.593 388.912 112.276 389.552 111.137C390.211 109.98 391.101 109.1 392.222 108.495C393.343 107.872 394.598 107.56 395.986 107.56C397.374 107.56 398.628 107.872 399.749 108.495C400.871 109.1 401.751 109.972 402.392 111.111C403.051 112.249 403.38 113.575 403.38 115.088C403.38 116.601 403.042 117.935 402.365 119.092C401.707 120.231 400.808 121.112 399.669 121.735C398.53 122.358 397.267 122.669 395.879 122.669ZM395.879 120.533C396.751 120.533 397.569 120.329 398.335 119.919C399.1 119.51 399.714 118.896 400.177 118.078C400.657 117.259 400.897 116.262 400.897 115.088C400.897 113.913 400.666 112.917 400.203 112.098C399.741 111.28 399.135 110.675 398.388 110.283C397.641 109.874 396.831 109.669 395.959 109.669C395.069 109.669 394.25 109.874 393.503 110.283C392.773 110.675 392.186 111.28 391.741 112.098C391.296 112.917 391.074 113.913 391.074 115.088C391.074 116.28 391.287 117.286 391.715 118.104C392.159 118.923 392.747 119.537 393.476 119.946C394.206 120.338 395.007 120.533 395.879 120.533ZM409.003 102.675V122.429H406.574V102.675H409.003ZM426.116 107.8V122.429H423.687V120.267C423.224 121.014 422.575 121.601 421.738 122.028C420.92 122.438 420.012 122.642 419.016 122.642C417.877 122.642 416.853 122.411 415.946 121.948C415.038 121.468 414.317 120.756 413.784 119.813C413.267 118.87 413.009 117.722 413.009 116.369V107.8H415.412V116.049C415.412 117.49 415.777 118.603 416.506 119.386C417.236 120.151 418.233 120.533 419.496 120.533C420.795 120.533 421.818 120.133 422.566 119.332C423.313 118.531 423.687 117.366 423.687 115.835V107.8H426.116ZM435.396 122.669C434.275 122.669 433.27 122.482 432.38 122.108C431.49 121.717 430.787 121.183 430.271 120.507C429.755 119.813 429.47 119.021 429.417 118.131H431.926C431.997 118.861 432.335 119.457 432.94 119.919C433.563 120.382 434.373 120.614 435.369 120.614C436.295 120.614 437.025 120.409 437.558 120C438.092 119.59 438.359 119.074 438.359 118.451C438.359 117.811 438.074 117.339 437.505 117.037C436.936 116.716 436.055 116.405 434.862 116.102C433.777 115.818 432.887 115.533 432.193 115.248C431.517 114.946 430.929 114.51 430.431 113.94C429.951 113.353 429.71 112.588 429.71 111.644C429.71 110.897 429.933 110.212 430.378 109.589C430.823 108.966 431.454 108.477 432.273 108.121C433.092 107.747 434.026 107.56 435.076 107.56C436.695 107.56 438.003 107.97 439 108.788C439.996 109.607 440.53 110.728 440.601 112.152H438.172C438.119 111.386 437.808 110.772 437.238 110.31C436.686 109.847 435.939 109.616 434.996 109.616C434.124 109.616 433.43 109.803 432.914 110.176C432.398 110.55 432.14 111.039 432.14 111.644C432.14 112.125 432.291 112.525 432.593 112.846C432.914 113.148 433.305 113.397 433.768 113.593C434.248 113.771 434.907 113.976 435.743 114.207C436.793 114.492 437.647 114.776 438.306 115.061C438.964 115.328 439.525 115.737 439.988 116.289C440.468 116.841 440.717 117.562 440.735 118.451C440.735 119.252 440.513 119.973 440.068 120.614C439.623 121.254 438.991 121.761 438.172 122.135C437.372 122.491 436.446 122.669 435.396 122.669ZM445.419 105.425C444.956 105.425 444.564 105.265 444.244 104.944C443.924 104.624 443.764 104.232 443.764 103.77C443.764 103.307 443.924 102.915 444.244 102.595C444.564 102.275 444.956 102.115 445.419 102.115C445.864 102.115 446.237 102.275 446.54 102.595C446.86 102.915 447.02 103.307 447.02 103.77C447.02 104.232 446.86 104.624 446.54 104.944C446.237 105.265 445.864 105.425 445.419 105.425ZM446.593 107.8V122.429H444.164V107.8H446.593ZM469.302 103.823V105.798H464.23V122.429H461.801V105.798H456.702V103.823H469.302ZM485.639 114.554C485.639 115.017 485.612 115.506 485.559 116.022H473.867C473.956 117.464 474.445 118.594 475.335 119.412C476.242 120.213 477.337 120.614 478.618 120.614C479.668 120.614 480.54 120.373 481.234 119.893C481.946 119.395 482.444 118.736 482.729 117.917H485.345C484.953 119.323 484.17 120.471 482.996 121.361C481.821 122.233 480.362 122.669 478.618 122.669C477.23 122.669 475.984 122.358 474.881 121.735C473.795 121.112 472.941 120.231 472.318 119.092C471.696 117.935 471.384 116.601 471.384 115.088C471.384 113.575 471.687 112.249 472.292 111.111C472.897 109.972 473.742 109.1 474.828 108.495C475.931 107.872 477.194 107.56 478.618 107.56C480.006 107.56 481.234 107.863 482.302 108.468C483.37 109.073 484.188 109.909 484.758 110.977C485.345 112.027 485.639 113.219 485.639 114.554ZM483.129 114.047C483.129 113.121 482.925 112.33 482.515 111.671C482.106 110.995 481.546 110.488 480.834 110.15C480.14 109.794 479.366 109.616 478.511 109.616C477.283 109.616 476.233 110.007 475.361 110.79C474.507 111.573 474.018 112.659 473.893 114.047H483.129ZM491.274 110.497C491.755 109.66 492.467 108.966 493.41 108.414C494.371 107.845 495.483 107.56 496.746 107.56C498.046 107.56 499.22 107.872 500.27 108.495C501.338 109.117 502.174 109.998 502.779 111.137C503.384 112.258 503.687 113.566 503.687 115.061C503.687 116.538 503.384 117.855 502.779 119.012C502.174 120.169 501.338 121.067 500.27 121.708C499.22 122.349 498.046 122.669 496.746 122.669C495.501 122.669 494.397 122.393 493.436 121.841C492.493 121.272 491.772 120.569 491.274 119.733V129.369H488.845V107.8H491.274V110.497ZM501.204 115.061C501.204 113.958 500.982 112.997 500.537 112.178C500.092 111.36 499.487 110.737 498.722 110.31C497.974 109.883 497.147 109.669 496.239 109.669C495.349 109.669 494.522 109.891 493.757 110.336C493.009 110.763 492.404 111.395 491.942 112.232C491.497 113.05 491.274 114.002 491.274 115.088C491.274 116.191 491.497 117.161 491.942 117.998C492.404 118.816 493.009 119.448 493.757 119.893C494.522 120.32 495.349 120.533 496.239 120.533C497.147 120.533 497.974 120.32 498.722 119.893C499.487 119.448 500.092 118.816 500.537 117.998C500.982 117.161 501.204 116.182 501.204 115.061ZM505.977 115.061C505.977 113.566 506.279 112.258 506.884 111.137C507.489 109.998 508.317 109.117 509.367 108.495C510.435 107.872 511.618 107.56 512.917 107.56C514.198 107.56 515.311 107.836 516.254 108.388C517.197 108.939 517.9 109.633 518.363 110.47V107.8H520.818V122.429H518.363V119.706C517.882 120.56 517.161 121.272 516.2 121.841C515.257 122.393 514.154 122.669 512.89 122.669C511.591 122.669 510.417 122.349 509.367 121.708C508.317 121.067 507.489 120.169 506.884 119.012C506.279 117.855 505.977 116.538 505.977 115.061ZM518.363 115.088C518.363 113.985 518.14 113.024 517.695 112.205C517.25 111.386 516.645 110.763 515.88 110.336C515.133 109.891 514.305 109.669 513.398 109.669C512.49 109.669 511.662 109.883 510.915 110.31C510.168 110.737 509.571 111.36 509.127 112.178C508.682 112.997 508.459 113.958 508.459 115.061C508.459 116.182 508.682 117.161 509.127 117.998C509.571 118.816 510.168 119.448 510.915 119.893C511.662 120.32 512.49 120.533 513.398 120.533C514.305 120.533 515.133 120.32 515.88 119.893C516.645 119.448 517.25 118.816 517.695 117.998C518.14 117.161 518.363 116.191 518.363 115.088ZM527.886 109.803V118.425C527.886 119.136 528.038 119.644 528.34 119.946C528.643 120.231 529.168 120.373 529.915 120.373H531.704V122.429H529.515C528.162 122.429 527.148 122.117 526.472 121.494C525.795 120.872 525.457 119.848 525.457 118.425V109.803H523.562V107.8H525.457V104.117H527.886V107.8H531.704V109.803H527.886ZM533.873 127.394V127.154C535.706 125.267 537.094 123.069 538.037 120.56C538.998 118.051 539.479 115.417 539.479 112.659C539.479 109.829 538.971 107.106 537.957 104.49C536.96 101.857 535.466 99.6054 533.472 97.7369V97.4966H536.008C537.877 99.2228 539.309 101.421 540.306 104.09C541.32 106.742 541.828 109.598 541.828 112.659C541.828 115.648 541.347 118.434 540.386 121.014C539.443 123.594 538.117 125.721 536.409 127.394H533.873Z" fill="white"/>
<defs>
<linearGradient id="paint0_linear_23_2" x1="73.7439" y1="28.1821" x2="73.7439" y2="130.782" gradientUnits="userSpaceOnUse">
<stop stop-color="#0EA9C5"/>
<stop offset="1" stop-color="#07515F"/>
</linearGradient>
<linearGradient id="paint1_linear_23_2" x1="7.63395" y1="56.8857" x2="7.63395" y2="72.1536" gradientUnits="userSpaceOnUse">
<stop stop-color="#0EA9C5"/>
<stop offset="1" stop-color="#07515F"/>
</linearGradient>
</defs>
</svg>
