<svg width="95" height="71" viewBox="0 0 95 71" fill="none" xmlns="http://www.w3.org/2000/svg">
<path d="M6.97814 1.41048L8.62006 1L65.2664 1.20524L68.345 2.0262L71.0131 2.84716L73.0655 3.66812L75.5284 4.89956L79.2227 6.95196L84.7642 11.8777L88.2533 16.1878L90.9214 21.3188L92.1528 24.6026L93.179 28.0917L93.5895 30.7598L94 35.2751V39.7904L93.5895 42.2533L92.7685 45.3319L91.1266 49.6419L89.6899 52.7205L87.4323 55.7991L84.5589 59.4935L81.2751 62.3668L78.4017 64.4192L75.5284 66.2664L71.834 67.9083L66.703 69.345L63.6244 69.9607H59.9301H55.4148L51.9257 69.345L49.2576 68.524L45.7685 67.4978L42.2795 65.6507L37.7642 62.1616L33.6594 58.4673L31.607 56.0044L29.3493 52.31L28.3231 50.2576H21.345L19.703 49.0262L18.6768 47.3843V43.4847L19.2926 42.2533L20.3188 41.2271L21.345 40.4061H38.3799V41.8428L39.6113 44.9214L41.048 47.7948L43.5109 50.8734L46.5895 53.7467L49.6681 55.7991L53.1572 57.0306L55.4148 57.6463H63.214L66.703 56.6201L70.1921 54.9782L73.6812 52.7205L76.7598 49.6419L77.9912 47.179H56.441L49.6681 35.2751L56.441 23.7817H77.9912L76.5546 21.7293L72.0393 17.4192L68.345 15.1616L64.8559 14.1354L59.9301 13.7249L55.0043 14.1354L51.31 15.1616L47.8209 17.0087L44.9476 19.6769L42.6899 22.1397L41.048 24.3974L39.6113 26.655L38.5851 28.9127L38.3799 30.7598H15.1877L14.3668 30.3493L13.5458 29.9389L12.7249 29.1179L12.3144 28.2969V23.3712L13.1353 22.1397L14.3668 21.1135L14.7773 20.9083L15.393 20.7031H26.2707L27.2969 20.4978L28.3231 19.6769L29.1441 19.0611L29.7598 18.0349V13.7249L28.9388 12.2882L28.1179 11.4672L27.2969 11.0568L8.62006 10.8515L7.7991 10.6463L6.97814 10.2358L5.7467 9.20961L5.13098 8.38865V5.31004V3.25764L5.7467 2.23144L6.97814 1.41048Z" fill="url(#paint0_linear_15_8)" stroke="#0EA9C5" stroke-width="0.41048"/>
<circle cx="5.131" cy="25.4236" r="5.131" fill="url(#paint1_linear_15_8)"/>
<defs>
<linearGradient id="paint0_linear_15_8" x1="49.5655" y1="1" x2="49.5655" y2="69.9607" gradientUnits="userSpaceOnUse">
<stop stop-color="#0EA9C5"/>
<stop offset="1" stop-color="#07515F"/>
</linearGradient>
<linearGradient id="paint1_linear_15_8" x1="5.131" y1="20.2926" x2="5.131" y2="30.5546" gradientUnits="userSpaceOnUse">
<stop stop-color="#0EA9C5"/>
<stop offset="1" stop-color="#07515F"/>
</linearGradient>
</defs>
</svg>
