<svg width="412" height="106" viewBox="0 0 412 106" fill="none" xmlns="http://www.w3.org/2000/svg">
<path d="M129.797 88.6414L129.024 92.3034H131.831V93.931H128.678L127.803 98H126.033L126.908 93.931H122.636L121.761 98H119.991L120.866 93.931H117.671V92.3034H121.211L121.984 88.6414H118.831V87.0138H122.33L123.205 82.9448H124.975L124.1 87.0138H128.373L129.248 82.9448H131.018L130.143 87.0138H132.971V88.6414H129.797ZM128.027 88.6414H123.754L122.981 92.3034H127.254L128.027 88.6414ZM142.753 90.6962C143.269 90.7776 143.737 90.9878 144.157 91.3269C144.591 91.666 144.93 92.0864 145.174 92.5883C145.432 93.0901 145.561 93.6259 145.561 94.1955C145.561 94.9144 145.378 95.5654 145.012 96.1486C144.645 96.7183 144.11 97.1726 143.404 97.5117C142.713 97.8372 141.892 98 140.943 98H135.653V83.8197H140.739C141.702 83.8197 142.523 83.9824 143.201 84.3079C143.879 84.6199 144.388 85.0471 144.727 85.5897C145.066 86.1322 145.235 86.7425 145.235 87.4207C145.235 88.2616 145.005 88.9601 144.544 89.5162C144.096 90.0587 143.499 90.4521 142.753 90.6962ZM137.504 89.9434H140.617C141.485 89.9434 142.157 89.74 142.631 89.3331C143.106 88.9262 143.343 88.3633 143.343 87.6445C143.343 86.9256 143.106 86.3628 142.631 85.9559C142.157 85.549 141.472 85.3455 140.576 85.3455H137.504V89.9434ZM140.78 96.4741C141.702 96.4741 142.421 96.2571 142.936 95.8231C143.452 95.3891 143.71 94.7855 143.71 94.0124C143.71 93.2257 143.438 92.6086 142.896 92.161C142.353 91.6999 141.628 91.4693 140.719 91.4693H137.504V96.4741H140.78ZM149.982 85.3252V90.0655H155.149V91.5914H149.982V96.4741H155.759V98H148.13V83.7993H155.759V85.3252H149.982ZM163.057 98.1424C162.121 98.1424 161.28 97.9797 160.534 97.6541C159.802 97.3151 159.225 96.8539 158.805 96.2707C158.385 95.6739 158.167 94.989 158.154 94.2159H160.127C160.195 94.8805 160.466 95.4433 160.941 95.9045C161.429 96.3521 162.135 96.5759 163.057 96.5759C163.939 96.5759 164.63 96.3589 165.132 95.9248C165.648 95.4772 165.905 94.9076 165.905 94.2159C165.905 93.6733 165.756 93.2325 165.458 92.8934C165.159 92.5544 164.786 92.2967 164.339 92.1203C163.891 91.944 163.288 91.7541 162.528 91.5507C161.592 91.3066 160.839 91.0624 160.27 90.8183C159.714 90.5741 159.232 90.1944 158.825 89.679C158.432 89.15 158.235 88.4447 158.235 87.5631C158.235 86.79 158.432 86.1051 158.825 85.5083C159.219 84.9115 159.768 84.4503 160.473 84.1248C161.192 83.7993 162.013 83.6366 162.935 83.6366C164.264 83.6366 165.349 83.9689 166.19 84.6334C167.045 85.298 167.526 86.1797 167.635 87.2783H165.6C165.532 86.7357 165.247 86.261 164.746 85.8541C164.244 85.4337 163.579 85.2234 162.752 85.2234C161.979 85.2234 161.348 85.4269 160.86 85.8338C160.372 86.2271 160.127 86.7832 160.127 87.5021C160.127 88.0175 160.27 88.4379 160.555 88.7634C160.853 89.089 161.212 89.3399 161.633 89.5162C162.067 89.679 162.67 89.8688 163.444 90.0859C164.379 90.3436 165.132 90.6013 165.702 90.859C166.272 91.1031 166.76 91.4897 167.167 92.0186C167.574 92.534 167.777 93.2393 167.777 94.1345C167.777 94.8262 167.594 95.4772 167.228 96.0876C166.862 96.6979 166.319 97.193 165.6 97.5728C164.881 97.9525 164.034 98.1424 163.057 98.1424ZM179.229 83.8197V85.3252H175.364V98H173.513V85.3252H169.627V83.8197H179.229ZM191.693 101.784C190.391 100.509 189.374 98.8884 188.641 96.9217C187.922 94.9551 187.563 92.8324 187.563 90.5538C187.563 88.2209 187.943 86.044 188.702 84.0231C189.475 81.9886 190.574 80.3136 191.998 78.9979H193.931V79.181C192.412 80.6052 191.266 82.3209 190.493 84.3283C189.733 86.3221 189.353 88.3972 189.353 90.5538C189.353 92.6561 189.713 94.6634 190.432 96.5759C191.164 98.4883 192.229 100.163 193.626 101.601V101.784H191.693ZM203.271 90.6962C203.787 90.7776 204.255 90.9878 204.675 91.3269C205.109 91.666 205.448 92.0864 205.692 92.5883C205.95 93.0901 206.079 93.6259 206.079 94.1955C206.079 94.9144 205.896 95.5654 205.53 96.1486C205.163 96.7183 204.628 97.1726 203.922 97.5117C203.231 97.8372 202.41 98 201.461 98H196.171V83.8197H201.257C202.22 83.8197 203.041 83.9824 203.719 84.3079C204.397 84.6199 204.906 85.0471 205.245 85.5897C205.584 86.1322 205.753 86.7425 205.753 87.4207C205.753 88.2616 205.523 88.9601 205.062 89.5162C204.614 90.0587 204.017 90.4521 203.271 90.6962ZM198.022 89.9434H201.135C202.003 89.9434 202.675 89.74 203.149 89.3331C203.624 88.9262 203.861 88.3633 203.861 87.6445C203.861 86.9256 203.624 86.3628 203.149 85.9559C202.675 85.549 201.99 85.3455 201.094 85.3455H198.022V89.9434ZM201.298 96.4741C202.22 96.4741 202.939 96.2571 203.454 95.8231C203.97 95.3891 204.227 94.7855 204.227 94.0124C204.227 93.2257 203.956 92.6086 203.414 92.161C202.871 91.6999 202.146 91.4693 201.237 91.4693H198.022V96.4741H201.298ZM218.82 91.9983C218.82 92.3509 218.8 92.7239 218.759 93.1172H209.848C209.916 94.2159 210.289 95.0771 210.967 95.701C211.659 96.3114 212.493 96.6166 213.47 96.6166C214.27 96.6166 214.935 96.4334 215.464 96.0672C216.006 95.6875 216.386 95.1856 216.603 94.5617H218.597C218.298 95.6332 217.701 96.508 216.806 97.1862C215.911 97.8508 214.799 98.1831 213.47 98.1831C212.412 98.1831 211.462 97.9457 210.621 97.471C209.794 96.9963 209.143 96.3249 208.668 95.4569C208.194 94.5753 207.956 93.558 207.956 92.4052C207.956 91.2523 208.187 90.2418 208.648 89.3738C209.109 88.5057 209.753 87.8411 210.581 87.38C211.422 86.9053 212.385 86.6679 213.47 86.6679C214.528 86.6679 215.464 86.8985 216.277 87.3597C217.091 87.8208 217.715 88.4583 218.149 89.2721C218.597 90.0723 218.82 90.981 218.82 91.9983ZM216.908 91.6117C216.908 90.9064 216.752 90.3029 216.44 89.801C216.128 89.2856 215.701 88.8991 215.158 88.6414C214.629 88.3701 214.039 88.2345 213.388 88.2345C212.453 88.2345 211.652 88.5329 210.988 89.1297C210.337 89.7264 209.964 90.5538 209.869 91.6117H216.908ZM226.696 86.6476C228.053 86.6476 229.151 87.0613 229.992 87.8886C230.833 88.7024 231.254 89.8824 231.254 91.4286V98H229.422V91.6931C229.422 90.5809 229.144 89.7332 228.588 89.15C228.032 88.5532 227.273 88.2548 226.31 88.2548C225.333 88.2548 224.553 88.56 223.97 89.1703C223.4 89.7807 223.116 90.6691 223.116 91.8355V98H221.264V86.851H223.116V88.4379C223.482 87.8683 223.977 87.4275 224.601 87.1155C225.238 86.8036 225.937 86.6476 226.696 86.6476ZM238.876 86.6679C239.839 86.6679 240.68 86.8782 241.398 87.2986C242.131 87.7191 242.673 88.248 243.026 88.8855V86.851H244.898V98.2441C244.898 99.2614 244.681 100.163 244.247 100.95C243.813 101.75 243.189 102.374 242.375 102.822C241.575 103.269 240.639 103.493 239.567 103.493C238.103 103.493 236.882 103.147 235.905 102.456C234.929 101.764 234.352 100.821 234.176 99.6276H236.007C236.211 100.306 236.631 100.848 237.268 101.255C237.906 101.676 238.672 101.886 239.567 101.886C240.585 101.886 241.412 101.567 242.049 100.93C242.701 100.292 243.026 99.397 243.026 98.2441V95.9045C242.66 96.5555 242.117 97.098 241.398 97.5321C240.68 97.9661 239.839 98.1831 238.876 98.1831C237.886 98.1831 236.984 97.939 236.17 97.4507C235.37 96.9624 234.739 96.2775 234.278 95.3959C233.817 94.5143 233.586 93.5106 233.586 92.3848C233.586 91.2455 233.817 90.2486 234.278 89.3941C234.739 88.5261 235.37 87.8547 236.17 87.38C236.984 86.9053 237.886 86.6679 238.876 86.6679ZM243.026 92.4052C243.026 91.5643 242.856 90.8318 242.517 90.2079C242.178 89.584 241.717 89.1093 241.134 88.7838C240.564 88.4447 239.934 88.2752 239.242 88.2752C238.55 88.2752 237.919 88.4379 237.35 88.7634C236.78 89.089 236.326 89.5637 235.987 90.1876C235.648 90.8115 235.478 91.5439 235.478 92.3848C235.478 93.2393 235.648 93.9853 235.987 94.6228C236.326 95.2467 236.78 95.7282 237.35 96.0672C237.919 96.3928 238.55 96.5555 239.242 96.5555C239.934 96.5555 240.564 96.3928 241.134 96.0672C241.717 95.7282 242.178 95.2467 242.517 94.6228C242.856 93.9853 243.026 93.2461 243.026 92.4052ZM254.252 98L249.878 93.0766V98H248.026V82.9448H249.878V91.7948L254.171 86.851H256.754L251.505 92.4052L256.775 98H254.252ZM268.669 91.9983C268.669 92.3509 268.649 92.7239 268.608 93.1172H259.697C259.765 94.2159 260.138 95.0771 260.816 95.701C261.508 96.3114 262.342 96.6166 263.319 96.6166C264.119 96.6166 264.783 96.4334 265.312 96.0672C265.855 95.6875 266.235 95.1856 266.452 94.5617H268.445C268.147 95.6332 267.55 96.508 266.655 97.1862C265.76 97.8508 264.648 98.1831 263.319 98.1831C262.261 98.1831 261.311 97.9457 260.47 97.471C259.643 96.9963 258.992 96.3249 258.517 95.4569C258.042 94.5753 257.805 93.558 257.805 92.4052C257.805 91.2523 258.036 90.2418 258.497 89.3738C258.958 88.5057 259.602 87.8411 260.43 87.38C261.271 86.9053 262.234 86.6679 263.319 86.6679C264.377 86.6679 265.312 86.8985 266.126 87.3597C266.94 87.8208 267.564 88.4583 267.998 89.2721C268.445 90.0723 268.669 90.981 268.669 91.9983ZM266.757 91.6117C266.757 90.9064 266.601 90.3029 266.289 89.801C265.977 89.2856 265.55 88.8991 265.007 88.6414C264.478 88.3701 263.888 88.2345 263.237 88.2345C262.301 88.2345 261.501 88.5329 260.837 89.1297C260.185 89.7264 259.812 90.5538 259.718 91.6117H266.757ZM272.964 82.9448V98H271.113V82.9448H272.964ZM286.04 98.1424C285.104 98.1424 284.263 97.9797 283.517 97.6541C282.785 97.3151 282.208 96.8539 281.788 96.2707C281.367 95.6739 281.15 94.989 281.137 94.2159H283.11C283.178 94.8805 283.449 95.4433 283.924 95.9045C284.412 96.3521 285.118 96.5759 286.04 96.5759C286.922 96.5759 287.613 96.3589 288.115 95.9248C288.631 95.4772 288.888 94.9076 288.888 94.2159C288.888 93.6733 288.739 93.2325 288.441 92.8934C288.142 92.5544 287.769 92.2967 287.322 92.1203C286.874 91.944 286.271 91.7541 285.511 91.5507C284.575 91.3066 283.822 91.0624 283.253 90.8183C282.697 90.5741 282.215 90.1944 281.808 89.679C281.415 89.15 281.218 88.4447 281.218 87.5631C281.218 86.79 281.415 86.1051 281.808 85.5083C282.202 84.9115 282.751 84.4503 283.456 84.1248C284.175 83.7993 284.996 83.6366 285.918 83.6366C287.247 83.6366 288.332 83.9689 289.173 84.6334C290.028 85.298 290.509 86.1797 290.618 87.2783H288.583C288.515 86.7357 288.23 86.261 287.729 85.8541C287.227 85.4337 286.562 85.2234 285.735 85.2234C284.962 85.2234 284.331 85.4269 283.843 85.8338C283.354 86.2271 283.11 86.7832 283.11 87.5021C283.11 88.0175 283.253 88.4379 283.538 88.7634C283.836 89.089 284.195 89.3399 284.616 89.5162C285.05 89.679 285.653 89.8688 286.426 90.0859C287.362 90.3436 288.115 90.6013 288.685 90.859C289.254 91.1031 289.743 91.4897 290.15 92.0186C290.556 92.534 290.76 93.2393 290.76 94.1345C290.76 94.8262 290.577 95.4772 290.211 96.0876C289.844 96.6979 289.302 97.193 288.583 97.5728C287.864 97.9525 287.016 98.1424 286.04 98.1424ZM298.347 98.1831C297.302 98.1831 296.353 97.9457 295.499 97.471C294.658 96.9963 293.993 96.3249 293.505 95.4569C293.03 94.5753 292.793 93.558 292.793 92.4052C292.793 91.2659 293.037 90.2622 293.525 89.3941C294.027 88.5125 294.705 87.8411 295.56 87.38C296.414 86.9053 297.37 86.6679 298.428 86.6679C299.486 86.6679 300.442 86.9053 301.297 87.38C302.151 87.8411 302.823 88.5057 303.311 89.3738C303.813 90.2418 304.064 91.2523 304.064 92.4052C304.064 93.558 303.806 94.5753 303.291 95.4569C302.789 96.3249 302.104 96.9963 301.236 97.471C300.368 97.9457 299.405 98.1831 298.347 98.1831ZM298.347 96.5555C299.011 96.5555 299.635 96.3995 300.219 96.0876C300.802 95.7756 301.27 95.3077 301.622 94.6838C301.989 94.0599 302.172 93.3003 302.172 92.4052C302.172 91.51 301.995 90.7505 301.643 90.1266C301.29 89.5026 300.829 89.0415 300.259 88.7431C299.69 88.4311 299.072 88.2752 298.408 88.2752C297.73 88.2752 297.106 88.4311 296.536 88.7431C295.98 89.0415 295.532 89.5026 295.193 90.1266C294.854 90.7505 294.685 91.51 294.685 92.4052C294.685 93.3139 294.847 94.0802 295.173 94.7041C295.512 95.328 295.96 95.796 296.516 96.1079C297.072 96.4063 297.682 96.5555 298.347 96.5555ZM308.349 82.9448V98H306.498V82.9448H308.349ZM321.392 86.851V98H319.541V96.3521C319.188 96.9217 318.693 97.3693 318.056 97.6948C317.432 98.0068 316.74 98.1628 315.981 98.1628C315.112 98.1628 314.333 97.9864 313.641 97.6338C312.949 97.2676 312.4 96.7251 311.993 96.0062C311.6 95.2874 311.403 94.4125 311.403 93.3817V86.851H313.234V93.1376C313.234 94.2362 313.512 95.0839 314.068 95.6807C314.624 96.2639 315.384 96.5555 316.347 96.5555C317.337 96.5555 318.117 96.2503 318.686 95.64C319.256 95.0297 319.541 94.1413 319.541 92.9748V86.851H321.392ZM328.465 98.1831C327.611 98.1831 326.844 98.0407 326.166 97.7559C325.488 97.4575 324.952 97.0506 324.559 96.5352C324.166 96.0062 323.949 95.4026 323.908 94.7245H325.82C325.875 95.2806 326.132 95.7349 326.593 96.0876C327.068 96.4402 327.685 96.6166 328.445 96.6166C329.15 96.6166 329.706 96.4606 330.113 96.1486C330.52 95.8367 330.723 95.4433 330.723 94.9686C330.723 94.4803 330.506 94.1209 330.072 93.8903C329.638 93.6462 328.967 93.4089 328.058 93.1783C327.231 92.9613 326.553 92.7443 326.024 92.5272C325.508 92.2967 325.061 91.9644 324.681 91.5303C324.315 91.0828 324.132 90.4995 324.132 89.7807C324.132 89.211 324.301 88.6889 324.64 88.2141C324.979 87.7394 325.461 87.3664 326.085 87.0952C326.709 86.8103 327.421 86.6679 328.221 86.6679C329.455 86.6679 330.452 86.9799 331.212 87.6038C331.971 88.2277 332.378 89.0822 332.432 90.1672H330.581C330.54 89.584 330.303 89.1161 329.869 88.7634C329.448 88.4108 328.879 88.2345 328.16 88.2345C327.495 88.2345 326.966 88.3769 326.573 88.6617C326.18 88.9466 325.983 89.3195 325.983 89.7807C325.983 90.1469 326.098 90.4521 326.329 90.6962C326.573 90.9268 326.871 91.1167 327.224 91.2659C327.59 91.4015 328.092 91.5575 328.73 91.7338C329.53 91.9508 330.181 92.1678 330.683 92.3848C331.185 92.5883 331.612 92.9002 331.964 93.3207C332.331 93.7411 332.52 94.2905 332.534 94.9686C332.534 95.579 332.365 96.1283 332.025 96.6166C331.686 97.1048 331.205 97.4914 330.581 97.7762C329.971 98.0475 329.265 98.1831 328.465 98.1831ZM336.104 85.0403C335.751 85.0403 335.453 84.9183 335.209 84.6741C334.964 84.43 334.842 84.1316 334.842 83.779C334.842 83.4263 334.964 83.1279 335.209 82.8838C335.453 82.6397 335.751 82.5176 336.104 82.5176C336.443 82.5176 336.728 82.6397 336.958 82.8838C337.202 83.1279 337.324 83.4263 337.324 83.779C337.324 84.1316 337.202 84.43 336.958 84.6741C336.728 84.9183 336.443 85.0403 336.104 85.0403ZM336.999 86.851V98H335.148V86.851H336.999ZM354.306 83.8197V85.3252H350.441V98H348.589V85.3252H344.703V83.8197H354.306ZM366.758 91.9983C366.758 92.3509 366.737 92.7239 366.697 93.1172H357.785C357.853 94.2159 358.226 95.0771 358.904 95.701C359.596 96.3114 360.43 96.6166 361.407 96.6166C362.207 96.6166 362.872 96.4334 363.401 96.0672C363.943 95.6875 364.323 95.1856 364.54 94.5617H366.534C366.235 95.6332 365.639 96.508 364.743 97.1862C363.848 97.8508 362.736 98.1831 361.407 98.1831C360.349 98.1831 359.4 97.9457 358.559 97.471C357.731 96.9963 357.08 96.3249 356.605 95.4569C356.131 94.5753 355.893 93.558 355.893 92.4052C355.893 91.2523 356.124 90.2418 356.585 89.3738C357.046 88.5057 357.691 87.8411 358.518 87.38C359.359 86.9053 360.322 86.6679 361.407 86.6679C362.465 86.6679 363.401 86.8985 364.214 87.3597C365.028 87.8208 365.652 88.4583 366.086 89.2721C366.534 90.0723 366.758 90.981 366.758 91.9983ZM364.845 91.6117C364.845 90.9064 364.689 90.3029 364.377 89.801C364.065 89.2856 363.638 88.8991 363.095 88.6414C362.567 88.3701 361.977 88.2345 361.325 88.2345C360.39 88.2345 359.589 88.5329 358.925 89.1297C358.274 89.7264 357.901 90.5538 357.806 91.6117H364.845ZM371.053 88.9059C371.419 88.2684 371.961 87.7394 372.68 87.319C373.413 86.8849 374.26 86.6679 375.223 86.6679C376.214 86.6679 377.109 86.9053 377.909 87.38C378.723 87.8547 379.36 88.5261 379.821 89.3941C380.282 90.2486 380.513 91.2455 380.513 92.3848C380.513 93.5106 380.282 94.5143 379.821 95.3959C379.36 96.2775 378.723 96.9624 377.909 97.4507C377.109 97.939 376.214 98.1831 375.223 98.1831C374.274 98.1831 373.433 97.9729 372.701 97.5524C371.982 97.1184 371.432 96.5826 371.053 95.9452V103.29H369.201V86.851H371.053V88.9059ZM378.621 92.3848C378.621 91.5439 378.451 90.8115 378.112 90.1876C377.773 89.5637 377.312 89.089 376.729 88.7634C376.159 88.4379 375.529 88.2752 374.837 88.2752C374.159 88.2752 373.528 88.4447 372.945 88.7838C372.375 89.1093 371.914 89.5908 371.561 90.2283C371.222 90.8522 371.053 91.5778 371.053 92.4052C371.053 93.2461 371.222 93.9853 371.561 94.6228C371.914 95.2467 372.375 95.7282 372.945 96.0672C373.528 96.3928 374.159 96.5555 374.837 96.5555C375.529 96.5555 376.159 96.3928 376.729 96.0672C377.312 95.7282 377.773 95.2467 378.112 94.6228C378.451 93.9853 378.621 93.2393 378.621 92.3848ZM382.258 92.3848C382.258 91.2455 382.489 90.2486 382.95 89.3941C383.411 88.5261 384.042 87.8547 384.842 87.38C385.656 86.9053 386.558 86.6679 387.548 86.6679C388.524 86.6679 389.372 86.8782 390.091 87.2986C390.81 87.7191 391.346 88.248 391.698 88.8855V86.851H393.57V98H391.698V95.9248C391.332 96.5759 390.783 97.1184 390.05 97.5524C389.331 97.9729 388.491 98.1831 387.528 98.1831C386.537 98.1831 385.642 97.939 384.842 97.4507C384.042 96.9624 383.411 96.2775 382.95 95.3959C382.489 94.5143 382.258 93.5106 382.258 92.3848ZM391.698 92.4052C391.698 91.5643 391.529 90.8318 391.19 90.2079C390.851 89.584 390.389 89.1093 389.806 88.7838C389.237 88.4447 388.606 88.2752 387.914 88.2752C387.222 88.2752 386.592 88.4379 386.022 88.7634C385.452 89.089 384.998 89.5637 384.659 90.1876C384.32 90.8115 384.15 91.5439 384.15 92.3848C384.15 93.2393 384.32 93.9853 384.659 94.6228C384.998 95.2467 385.452 95.7282 386.022 96.0672C386.592 96.3928 387.222 96.5555 387.914 96.5555C388.606 96.5555 389.237 96.3928 389.806 96.0672C390.389 95.7282 390.851 95.2467 391.19 94.6228C391.529 93.9853 391.698 93.2461 391.698 92.4052ZM398.957 88.3769V94.9483C398.957 95.4908 399.072 95.8774 399.303 96.1079C399.533 96.3249 399.933 96.4334 400.503 96.4334H401.866V98H400.198C399.167 98 398.394 97.7626 397.879 97.2879C397.363 96.8132 397.106 96.0333 397.106 94.9483V88.3769H395.661V86.851H397.106V84.0434H398.957V86.851H401.866V88.3769H398.957ZM403.519 101.784V101.601C404.916 100.163 405.974 98.4883 406.693 96.5759C407.426 94.6634 407.792 92.6561 407.792 90.5538C407.792 88.3972 407.405 86.3221 406.632 84.3283C405.873 82.3209 404.733 80.6052 403.214 79.181V78.9979H405.147C406.571 80.3136 407.663 81.9886 408.423 84.0231C409.196 86.044 409.582 88.2209 409.582 90.5538C409.582 92.8324 409.216 94.9551 408.484 96.9217C407.765 98.8884 406.754 100.509 405.452 101.784H403.519Z" fill="white"/>
<path d="M146.252 23.1647V29.7756H129.227V40.2477H142.273V46.7415H129.227V64H121.037V23.1647H146.252ZM156.213 27.728C154.77 27.728 153.561 27.2794 152.586 26.3824C151.65 25.4463 151.182 24.2958 151.182 22.9307C151.182 21.5656 151.65 20.4345 152.586 19.5375C153.561 18.6014 154.77 18.1334 156.213 18.1334C157.656 18.1334 158.846 18.6014 159.782 19.5375C160.757 20.4345 161.244 21.5656 161.244 22.9307C161.244 24.2958 160.757 25.4463 159.782 26.3824C158.846 27.2794 157.656 27.728 156.213 27.728ZM160.25 31.5892V64H152.059V31.5892H160.25ZM192.796 64L183.962 50.2517L175.948 64H166.704L179.575 43.4068L166.529 23.1647H175.948L184.782 36.8545L192.738 23.1647H201.982L189.169 43.6994L202.216 64H192.796ZM222.841 64.5265C219.721 64.5265 216.912 63.844 214.416 62.4789C211.92 61.0748 209.95 59.1052 208.507 56.5701C207.103 54.0349 206.401 51.1098 206.401 47.7946C206.401 44.4794 207.123 41.5542 208.566 39.0191C210.048 36.484 212.057 34.5338 214.592 33.1688C217.127 31.7647 219.955 31.0626 223.075 31.0626C226.195 31.0626 229.023 31.7647 231.558 33.1688C234.093 34.5338 236.082 36.484 237.525 39.0191C239.007 41.5542 239.748 44.4794 239.748 47.7946C239.748 51.1098 238.988 54.0349 237.466 56.5701C235.984 59.1052 233.956 61.0748 231.382 62.4789C228.847 63.844 226 64.5265 222.841 64.5265ZM222.841 57.3891C224.323 57.3891 225.707 57.0381 226.994 56.3361C228.32 55.595 229.374 54.503 230.154 53.0599C230.934 51.6168 231.324 49.8617 231.324 47.7946C231.324 44.7134 230.505 42.3538 228.867 40.7157C227.267 39.0386 225.298 38.2 222.958 38.2C220.618 38.2 218.648 39.0386 217.049 40.7157C215.489 42.3538 214.709 44.7134 214.709 47.7946C214.709 50.8758 215.469 53.2549 216.99 54.932C218.55 56.5701 220.501 57.3891 222.841 57.3891ZM253.947 20.7076V64H245.756V20.7076H253.947ZM292.636 31.5892V64H284.387V59.9048C283.334 61.3088 281.949 62.4204 280.233 63.2395C278.556 64.0195 276.723 64.4095 274.734 64.4095C272.199 64.4095 269.956 63.883 268.006 62.8299C266.056 61.7379 264.515 60.1583 263.384 58.0912C262.292 55.985 261.746 53.4889 261.746 50.6027V31.5892H269.937V49.4327C269.937 52.0068 270.58 53.9959 271.867 55.4C273.154 56.7651 274.91 57.4476 277.133 57.4476C279.395 57.4476 281.169 56.7651 282.456 55.4C283.744 53.9959 284.387 52.0068 284.387 49.4327V31.5892H292.636ZM310.253 38.3171V53.9959C310.253 55.088 310.507 55.8875 311.014 56.3946C311.56 56.8626 312.457 57.0966 313.705 57.0966H317.508V64H312.359C305.456 64 302.004 60.6458 302.004 53.9374V38.3171H298.143V31.5892H302.004V23.5742H310.253V31.5892H317.508V38.3171H310.253ZM327.552 27.728C326.109 27.728 324.9 27.2794 323.925 26.3824C322.989 25.4463 322.521 24.2958 322.521 22.9307C322.521 21.5656 322.989 20.4345 323.925 19.5375C324.9 18.6014 326.109 18.1334 327.552 18.1334C328.996 18.1334 330.185 18.6014 331.121 19.5375C332.096 20.4345 332.584 21.5656 332.584 22.9307C332.584 24.2958 332.096 25.4463 331.121 26.3824C330.185 27.2794 328.996 27.728 327.552 27.728ZM331.589 31.5892V64H323.399V31.5892H331.589ZM354.073 64.5265C350.953 64.5265 348.145 63.844 345.649 62.4789C343.153 61.0748 341.183 59.1052 339.74 56.5701C338.336 54.0349 337.634 51.1098 337.634 47.7946C337.634 44.4794 338.355 41.5542 339.798 39.0191C341.28 36.484 343.289 34.5338 345.824 33.1688C348.359 31.7647 351.187 31.0626 354.307 31.0626C357.427 31.0626 360.255 31.7647 362.79 33.1688C365.325 34.5338 367.314 36.484 368.757 39.0191C370.24 41.5542 370.981 44.4794 370.981 47.7946C370.981 51.1098 370.22 54.0349 368.699 56.5701C367.217 59.1052 365.189 61.0748 362.615 62.4789C360.079 63.844 357.232 64.5265 354.073 64.5265ZM354.073 57.3891C355.555 57.3891 356.94 57.0381 358.227 56.3361C359.553 55.595 360.606 54.503 361.386 53.0599C362.166 51.6168 362.556 49.8617 362.556 47.7946C362.556 44.7134 361.737 42.3538 360.099 40.7157C358.5 39.0386 356.53 38.2 354.19 38.2C351.85 38.2 349.88 39.0386 348.281 40.7157C346.721 42.3538 345.941 44.7134 345.941 47.7946C345.941 50.8758 346.702 53.2549 348.223 54.932C349.783 56.5701 351.733 57.3891 354.073 57.3891ZM394.949 31.1211C398.81 31.1211 401.931 32.3497 404.31 34.8069C406.689 37.225 407.878 40.6182 407.878 44.9864V64H399.688V46.098C399.688 43.5238 399.044 41.5542 397.757 40.1892C396.47 38.7851 394.715 38.083 392.492 38.083C390.23 38.083 388.436 38.7851 387.11 40.1892C385.823 41.5542 385.179 43.5238 385.179 46.098V64H376.989V31.5892H385.179V35.6259C386.271 34.2218 387.656 33.1298 389.333 32.3497C391.049 31.5307 392.921 31.1211 394.949 31.1211Z" fill="white"/>
<path d="M6.97817 29.4105L8.6201 29L65.2664 29.2052L68.345 30.0262L71.0131 30.8472L73.0655 31.6681L75.5284 32.8996L79.2227 34.952L84.7642 39.8777L88.2533 44.1878L90.9214 49.3188L92.1528 52.6026L93.179 56.0917L93.5895 58.7598L94 63.2751V67.7904L93.5895 70.2533L92.7686 73.3319L91.1266 77.6419L89.69 80.7205L87.4323 83.7991L84.559 87.4935L81.2751 90.3668L78.4018 92.4192L75.5284 94.2664L71.8341 95.9083L66.7031 97.345L63.6245 97.9607H59.9301H55.4149L51.9258 97.345L49.2576 96.524L45.7686 95.4978L42.2795 93.6507L37.7642 90.1616L33.6594 86.4673L31.607 84.0044L29.3494 80.31L28.3232 78.2576H21.345L19.7031 77.0262L18.6769 75.3843V71.4847L19.2926 70.2533L20.3188 69.2271L21.345 68.4061H38.3799V69.8428L39.6114 72.9214L41.048 75.7948L43.5109 78.8734L46.5895 81.7467L49.6681 83.7991L53.1572 85.0306L55.4149 85.6463H63.214L66.7031 84.6201L70.1921 82.9782L73.6812 80.7205L76.7598 77.6419L77.9913 75.179H56.4411L49.6681 63.2751L56.4411 51.7817H77.9913L76.5546 49.7293L72.0393 45.4192L68.345 43.1616L64.8559 42.1354L59.9301 41.7249L55.0044 42.1354L51.3101 43.1616L47.821 45.0087L44.9476 47.6769L42.69 50.1397L41.048 52.3974L39.6114 54.655L38.5852 56.9127L38.3799 58.7598H15.1878L14.3668 58.3493L13.5459 57.9389L12.7249 57.1179L12.3144 56.2969V51.3712L13.1354 50.1397L14.3668 49.1135L14.7773 48.9083L15.393 48.7031H26.2708L27.297 48.4978L28.3232 47.6769L29.1441 47.0611L29.7598 46.0349V41.7249L28.9389 40.2882L28.1179 39.4672L27.297 39.0568L8.6201 38.8515L7.79913 38.6463L6.97817 38.2358L5.74673 37.2096L5.13101 36.3886V33.31V31.2576L5.74673 30.2314L6.97817 29.4105Z" fill="url(#paint0_linear_20_158)" stroke="#0EA9C5" stroke-width="0.41048"/>
<circle cx="5.131" cy="53.4236" r="5.131" fill="url(#paint1_linear_20_158)"/>
<defs>
<linearGradient id="paint0_linear_20_158" x1="49.5655" y1="29" x2="49.5655" y2="97.9607" gradientUnits="userSpaceOnUse">
<stop stop-color="white"/>
<stop offset="1" stop-color="#DFDFDF"/>
</linearGradient>
<linearGradient id="paint1_linear_20_158" x1="5.131" y1="48.2926" x2="5.131" y2="58.5546" gradientUnits="userSpaceOnUse">
<stop stop-color="white"/>
<stop offset="1" stop-color="#DFDFDF"/>
</linearGradient>
</defs>
</svg>
